<svg width="30" height="30" viewBox="0 0 30 30" fill="none" xmlns="http://www.w3.org/2000/svg">
<path d="M7 8H10V7C10 6.46957 10.2107 5.96086 10.5858 5.58579C10.9609 5.21071 11.4696 5 12 5H18C18.5304 5 19.0391 5.21071 19.4142 5.58579C19.7893 5.96086 20 6.46957 20 7V8H23C23.2652 8 23.5196 8.10536 23.7071 8.29289C23.8946 8.48043 24 8.73478 24 9C24 9.26522 23.8946 9.51957 23.7071 9.70711C23.5196 9.89464 23.2652 10 23 10H22V23C22 23.5304 21.7893 24.0391 21.4142 24.4142C21.0391 24.7893 20.5304 25 20 25H10C9.46957 25 8.96086 24.7893 8.58579 24.4142C8.21071 24.0391 8 23.5304 8 23V10H7C6.73478 10 6.48043 9.89464 6.29289 9.70711C6.10536 9.51957 6 9.26522 6 9C6 8.73478 6.10536 8.48043 6.29289 8.29289C6.48043 8.10536 6.73478 8 7 8ZM10 10V23H20V10H10ZM12 8H18V7H12V8ZM12 12H14V21H12V12ZM16 12H18V21H16V12Z" fill="#4B3F6B"/>
</svg>
